# xmcd
#
# Track frame offsets:
#	150
#	14939
#	37248
#	57166
#	78203
#	96020
#	115481
#	133786
#	154377
#	175555
#	183903
#
# Disc length: 2634 seconds
#
# Revision: 1
# Processed by: cddbd v1.5.1PL0 Copyright (c) Steve Scherf et al.
# Submitted via: audiograbber 1.83.01
#
DISCID=930a480b
DTITLE=Redneck Rolemodels - Redneck Rolemodels
DYEAR=1999
DGENRE=Country-Rock
TTITLE0=Custer
TTITLE1=Lost On Me
TTITLE2=Junk
TTITLE3=What´s Inside
TTITLE4=Chicken´s On Fire
TTITLE5=Reminders
TTITLE6=All Along
TTITLE7=You And Me
TTITLE8=The Cost Of Living
TTITLE9=Livin After Love Is Gone
TTITLE10=Run
EXTD=
EXTT0=
EXTT1=
EXTT2=
EXTT3=
EXTT4=
EXTT5=
EXTT6=
EXTT7=
EXTT8=
EXTT9=
EXTT10=
PLAYORDER=
